PathFileType	4	(X/Y/Z)	C:/Users/beibeiliu/ov580/test_trc/User1\sequence.33_training_dense_left.trc
DataRate	CameraRate	NumFrames	NumMarkers	Units	OrigDataRate	OrigDataStartFrame	OrigNumFrames
120	120	15	19	mm	120	33	260
Frame#	Time	ThumbCMC			ThumbMCP			ThumbIP			ThumbTip			IndexMCP			IndexPIP			IndexTip			MiddleMCP			MiddlePIP			MiddleTip			RingMCP			RingPIP			RingTip			PinkyMCP			PinkyPIP			PinkyTip			BackHand1			BackHand2			BackHand3	
		X0	Y0	Z0	X1	Y1	Z1	X2	Y2	Z2	X3	Y3	Z3	X4	Y4	Z4	X5	Y5	Z5	X6	Y6	Z6	X7	Y7	Z7	X8	Y8	Z8	X9	Y9	Z9	X10	Y10	Z10	X11	Y11	Z11	X12	Y12	Z12	X13	Y13	Z13	X14	Y14	Z14	X15	Y15	Z15	X16	Y16	Z16	X17	Y17	Z17	X18	Y18	Z18	
32	0.266667	-135.209	12.6244	45.8766	-104.929	6.94	33.5543	-83.6906	5.24971	15.885	-66.3878	0.800717	1.21761	-141.281	10.2949	-36.6606	-131.249	-0.668151	-63.9892	-119.02	-15.6817	-85.1132	-164.44	-10.606	-46.4063	-155.618	-16.3534	-75.1481	-141.138	-26.6097	-101.186	-174.4	-29.457	-41.2546	-167.789	-38.0157	-66.6838	-153.998	-47.9734	-88.3033	-182.144	-57.762	-22.1728	-173.607	-63.4725	-43.2653	-164.198	-71.5483	-66.9019	-192.772	-20.0826	12.6582	-197.319	-16.2232	48.5114	-175.462	6.60385	30.3824	
33	0.275	-138.561	19.4704	44.3529	-107.463	14.4188	28.3192	-87.0978	11.661	6.49205	-71.3561	7.43206	-3.88939	-148.059	4.45327	-40.007	-136.498	-5.09521	-65.5205	-119.178	-18.7519	-84.5864	-164.938	-13.9868	-49.8713	-156.042	-21.6981	-75.2127	-141.107	-31.7467	-98.7749	-172.063	-35.6852	-42.8496	-163.864	-44.6473	-65.9516	-147.876	-55.1731	-88.3141	-176.352	-63.5683	-23.751	-166.448	-68.913	-41.2827	-160.033	-77.6169	-62.7872	-190.985	-22.1641	12.9314	-198.05	-19.8696	44.3178	-180.591	6.81693	27.1935	
34	0.283333	-145.004	20.7116	40.5978	-111.717	20.2886	25.3599	-94.9324	16.9651	4.51774	-77.7285	12.8004	-12.3959	-152.073	3.3169	-41.7488	-136.503	-9.85139	-69.1649	-121.7	-21.8086	-82.9127	-166.284	-20.3098	-51.7304	-153.911	-30.4877	-77.3335	-134.62	-40.8803	-100.929	-171.569	-44.8154	-40.2421	-158.25	-50.4918	-67.4434	-140.615	-62.2573	-86.0179	-170.816	-67.1151	-15.586	-159.397	-75.5326	-39.2253	-147.734	-80.4897	-60.796	-189.983	-28.1129	13.9048	-197.371	-25.3079	49.1516	-184.009	1.96344	25.7361	
35	0.291667	-149.371	23.3486	38.2576	-118.767	23.6546	16.3672	-102.872	20.4961	-2.18348	-84.1978	17.1473	-18.9003	-156.254	-0.985226	-46.2422	-137.927	-10.3366	-72.0118	-120.397	-23.1901	-83.311	-166.648	-32.0746	-51.5351	-150.728	-36.6277	-76.9971	-129.951	-45.4799	-98.2561	-166.837	-53.5279	-38.7825	-151.73	-60.6151	-65.7502	-132.643	-67.1437	-80.314	-162.67	-74.2533	-17.7324	-149.735	-81.631	-36.3978	-136.629	-87.7587	-53.2838	-189.182	-37.4233	12.7847	-196.649	-32.0034	47.6464	-185.055	-2.5414	26.1031	
36	0.3	-155.14	22.8377	33.2599	-125.654	23.7682	11.8563	-109.013	23.0682	-6.94731	-87.918	26.1607	-24.8615	-158.468	-12.3105	-47.3614	-143.627	-20.461	-69.1612	-119.593	-31.1058	-83.2392	-165.608	-38.4101	-49.234	-150.045	-43.7108	-74.4264	-125.505	-56.3473	-92.7467	-162.401	-60.5257	-35.0148	-147.174	-67.8721	-59.2044	-121.247	-73.3347	-78.893	-154.057	-77.3431	-15.1129	-140.805	-84.1577	-31.7282	-122.723	-91.8298	-50.4341	-185.452	-45.9446	17.6348	-194.108	-37.0858	46.9618	-187.057	-8.81796	23.8907	
37	0.308333	-158.865	18.0224	28.3345	-129.871	23.1753	6.98729	-113.167	23.7042	-9.89935	-93.2723	27.346	-27.8336	-157.334	-19.8734	-52.0255	-140.586	-26.7542	-72.8736	-115.8	-32.2255	-85.4061	-162.701	-47.2776	-46.6807	-144.894	-54.1384	-73.0642	-119.039	-62.8121	-89.5689	-157.543	-68.6204	-33.2829	-138.486	-73.9188	-60.7242	-112.909	-82.408	-74.2733	-150.267	-82.5747	-7.19568	-133.501	-91.0997	-25.1362	-118.822	-92.0981	-45.6956	-183.147	-46.4338	18.6781	-192.162	-44.5307	49.3181	-188.529	-11.028	19.684	
38	0.316667	-161.771	14.0535	26.8953	-131.256	25.0396	7.37563	-114.162	25.0975	-14.0772	-96.5258	22.7785	-27.4535	-158.684	-22.4538	-49.2248	-138.919	-28.3196	-74.0371	-113.514	-39.0248	-84.2549	-160.809	-48.2668	-48.7885	-140.677	-59.2574	-72.91	-111.832	-67.6387	-90.1757	-153.764	-70.2351	-35.3747	-135.197	-79.3211	-57.5054	-110.783	-83.6799	-70.1868	-143.99	-84.8821	-8.77511	-128.226	-94.7907	-22.2102	-107.58	-98.9094	-43.614	-179.861	-53.8159	19.211	-190.505	-42.7236	47.2065	-189.923	-14.8018	19.3295	
39	0.325	-161.516	10.6442	26.7333	-132.963	17.8464	8.9487	-113.322	19.7511	-16.5407	-93.9626	19.1287	-34.3369	-154.935	-28.9267	-52.6106	-139.739	-34.8532	-70.8172	-110.807	-42.5763	-84.338	-157.434	-58.578	-48.9358	-137.001	-65.1722	-72.1112	-112.623	-72.5424	-85.4448	-152.448	-73.579	-33.3356	-131.66	-84.4761	-55.1715	-105.921	-90.4775	-68.335	-141.418	-90.027	-7.78219	-125.448	-97.5728	-21.8285	-105.092	-100.168	-40.495	-181.332	-54.5507	18.2512	-188.621	-47.9545	49.1079	-188.349	-16.8964	21.5011	
40	0.333333	-158.579	12.6795	25.129	-130.821	15.2717	5.86036	-113.08	16.1121	-16.3636	-93.5557	15.4826	-32.7522	-155.572	-34.6769	-51.1291	-137.344	-40.1943	-70.5425	-112.145	-50.3468	-80.5198	-157.349	-61.6233	-46.6779	-138.714	-69.2576	-69.179	-110.906	-72.9932	-86.7254	-152.081	-80.6029	-30.4346	-133.664	-88.774	-53.1382	-105.769	-91.6658	-67.3844	-145.056	-91.0398	-4.86672	-127.437	-102.16	-18.6009	-109.975	-103.758	-40.261	-179.606	-62.3654	18.6087	-188.774	-49.4095	50.894	-188.403	-22.9908	22.668	
41	0.341667	-158.016	9.72208	26.9388	-129.289	10.5779	10.7049	-109.274	10.2677	-16.9213	-93.1569	5.12579	-32.2804	-156.507	-35.2854	-47.1986	-140.153	-44.8707	-67.4264	-113.721	-56.0418	-77.4238	-157.757	-66.0406	-45.3529	-139.137	-73.4201	-68.0949	-111.019	-83.4895	-82.1278	-153.527	-85.1	-27.2172	-134.508	-90.9284	-50.9953	-108.681	-94.6945	-64.1731	-144.737	-98.4467	-1.68012	-128.399	-105.526	-18.0162	-107.847	-110.396	-37.7862	-180.054	-62.0835	21.6035	-188.16	-48.6622	51.8127	-186.916	-22.3899	25.1027	
42	0.35	-155.535	3.58976	27.597	-127.052	10.5508	9.45751	-109.898	0.617853	-14.4219	-92.9078	-2.06731	-27.9851	-157.4	-36.2521	-45.9242	-137.02	-49.1486	-67.4377	-110.115	-59.1325	-78.7336	-157.694	-68.4578	-44.2085	-139.368	-78.7991	-65.3339	-109.989	-84.3968	-83.1653	-154.109	-87.3397	-24.5941	-133.706	-99.5395	-47.1983	-110.39	-101.101	-61.2324	-146.753	-100.77	0.756061	-131.22	-108.32	-16.6527	-113.375	-111.915	-35.9412	-181.493	-62.5071	26.0627	-188.272	-51.3394	56.0813	-186.078	-25.4601	27.6788	
43	0.358333	-155.321	3.27755	30.577	-127.535	3.36093	10.973	-110.119	0.151615	-9.33766	-90.2624	-6.5399	-28.9026	-156.343	-44.275	-43.4532	-140.529	-50.2084	-64.568	-115.419	-62.6684	-74.8106	-160.214	-70.7365	-37.9976	-140.025	-78.9493	-65.7269	-113.648	-88.8667	-77.8278	-154.732	-89.5647	-25.7213	-138.771	-100.24	-44.3869	-112.5	-108.194	-57.6385	-149.103	-101.219	-0.611121	-134.674	-111.383	-13.6756	-118.988	-115.893	-32.0458	-182.413	-63.9127	24.7783	-189.941	-55.5947	59.0979	-186.125	-25.1679	29.5076	
44	0.366667	-155.548	-2.06789	35.6453	-124.921	2.94441	12.7842	-107.827	-2.48961	-13.179	-92.9382	-12.1458	-26.3932	-157.388	-42.5917	-40.6094	-141.883	-54.383	-61.2876	-113.998	-67.3579	-72.7804	-162.578	-68.7729	-36.3989	-144.76	-81.7609	-59.3415	-116.107	-90.8673	-77.086	-156.802	-92.7821	-23.6378	-141.815	-102.503	-42.2665	-115.253	-111.037	-55.6255	-153.452	-101.842	5.41284	-135.785	-114.972	-12.4218	-119.211	-117.73	-33.5773	-183.114	-65.0826	29.517	-190.216	-51.8893	58.597	-187.061	-26.4715	27.8549	
45	0.375	-154.516	-3.01719	35.0238	-125.136	-2.09684	12.3771	-109.93	-8.38841	-6.46683	-93.3812	-12.3928	-22.0359	-159.134	-44.3711	-39.8486	-141.138	-55.7135	-61.3021	-116.262	-67.8934	-71.3932	-163.552	-71.8469	-37.5273	-143.855	-86.417	-59.7574	-119.965	-93.9796	-74.9431	-161.293	-89.5758	-21.9357	-144.467	-102.314	-40.9408	-116.511	-111.894	-55.8242	-154.015	-106.645	4.09471	-140.026	-117.51	-8.63965	-125.988	-121.757	-28.8569	-185.321	-69.6202	33.4527	-193.263	-52.7365	62.7935	-187.322	-28.5167	32.9684	
46	0.383333	-155.554	-3.00803	33.4499	-125.124	-1.27943	14.8159	-110.626	-9.33699	-6.26085	-94.5441	-19.8833	-24.021	-161.713	-44.7416	-37.7676	-146.191	-58.3095	-57.8445	-119.27	-72.8972	-67.6746	-166.497	-70.7155	-37.08	-146.37	-84.1774	-61.0158	-121.621	-95.0381	-72.8859	-164.609	-94.943	-17.3925	-147.031	-102.846	-41.5232	-122.371	-113.764	-51.97	-157.019	-108.29	5.22167	-146.564	-115.54	-7.29047	-128.457	-122.413	-25.6786	-187.402	-66.8379	31.3291	-193.354	-54.8635	64.916	-187.978	-28.1956	33.4531	
